<svg width="8" height="13" viewBox="0 0 8 13" fill="none" xmlns="http://www.w3.org/2000/svg">
<path d="M7.16357 6.3584C7.16357 6.45117 7.14404 6.53906 7.10498 6.62207C7.0708 6.70019 7.01953 6.77344 6.95117 6.8418L1.15039 12.5181C1.01855 12.6499 0.857422 12.7158 0.666992 12.7158C0.544922 12.7158 0.432617 12.6865 0.330078 12.6279C0.227539 12.5693 0.146972 12.4888 0.0883787 12.3862C0.029785 12.2886 0.000488106 12.1763 0.000488105 12.0493C0.000488103 11.8687 0.0639647 11.71 0.190918 11.5732L5.52295 6.3584L0.190918 1.14355C0.0639646 1.00684 0.00048801 0.848144 0.000488008 0.66748C0.000488007 0.540527 0.0297849 0.428222 0.0883786 0.330566C0.146972 0.228027 0.227539 0.14746 0.330078 0.0888665C0.432617 0.0302727 0.544922 0.000975822 0.666992 0.000975822C0.857422 0.000975822 1.01855 0.0644524 1.15039 0.191406L6.95117 5.875C7.01953 5.94336 7.0708 6.01904 7.10498 6.10205C7.14404 6.18018 7.16357 6.26562 7.16357 6.3584Z" fill="#8B7BA8"/>
</svg>
